# xmcd
#
# Track frame offsets:
#	150
#	14280
#	31705
#	42886
#	56771
#	69096
#	82643
#	96537
#	109472
#	126788
#	141950
#	158482
#	170990
#	185142
#	207092
#	224102
#	238267
#	256276
#	279354
#	292215
#	318687
#
# Disc length: 4255 seconds
#
# Revision: 1
# Processed by: cddbd v1.5.2PL0 Copyright (c) Steve Scherf et al.
# Submitted via: audiograbber 1.83.01
#
DISCID=43109d15
DTITLE=CONWAY TWITTY - TT193
DYEAR=1900
DGENRE=KARAOKE
TTITLE0=BETWEEN BLUE EYES AND JEANS
TTITLE1=CRAZY IN LOVE
TTITLE2=DESPERADO LOVE
TTITLE3=HAPPY BIRTHDAY DARLING
TTITLE4=HELLO DARLIN'
TTITLE5=I COULDN'T SEE YOU LEAVIN'
TTITLE6=I DON'T KNOW A THING ABOUT LOVE
TTITLE7=I MAY NEVER GET TO HEAVEN
TTITLE8=I WANT TO KNOW YOU BEFORE WE MAKE LOVE
TTITLE9=I WISH I WAS STILL IN YOUR DREAMS
TTITLE10=I'D LOVE TO LAY YOU DOWN
TTITLE11=IT'S ONLY MAKE BELIEVE
TTITLE12=LINDA ON MY MIND
TTITLE13=RED NECKIN' LOVE MAKIN' NIGHT
TTITLE14=SHE'S GOT A SINGLE THING IN MIND
TTITLE15=SLOW HAND
TTITLE16=SOMEBODY'S NEEDIN' SOMEBODY
TTITLE17=THAT'S MY JOB
TTITLE18=TIGHT FITTIN' JEANS
TTITLE19=YOU'VE NEVER BEEN THIS FAR BEFORE
TTITLE20=Data Track
EXTD=
EXTT0=
EXTT1=
EXTT2=
EXTT3=
EXTT4=
EXTT5=
EXTT6=
EXTT7=
EXTT8=
EXTT9=
EXTT10=
EXTT11=
EXTT12=
EXTT13=
EXTT14=
EXTT15=
EXTT16=
EXTT17=
EXTT18=
EXTT19=
EXTT20=
PLAYORDER=
